subject01_walk1_RRA_states
nRows=8
nColumns=47

# SIMM Motion File Header:
name subject01_walk1_RRA_states
datacolumns 47
datarows 8
otherdata 1
range 0.75000000000000000000 0.75000127000000005000
endheader
time	pelvis_tx	pelvis_ty	pelvis_tz	pelvis_tilt	pelvis_list	pelvis_rotation	hip_flexion_r	hip_adduction_r	hip_rotation_r	knee_angle_r	ankle_angle_r	subtalar_angle_r	mtp_angle_r	hip_flexion_l	hip_adduction_l	hip_rotation_l	knee_angle_l	ankle_angle_l	subtalar_angle_l	mtp_angle_l	lumbar_extension	lumbar_bending	lumbar_rotation	pelvis_tx_u	pelvis_ty_u	pelvis_tz_u	pelvis_tilt_u	pelvis_list_u	pelvis_rotation_u	hip_flexion_r_u	hip_adduction_r_u	hip_rotation_r_u	knee_angle_r_u	ankle_angle_r_u	subtalar_angle_r_u	mtp_angle_r_u	hip_flexion_l_u	hip_adduction_l_u	hip_rotation_l_u	knee_angle_l_u	ankle_angle_l_u	subtalar_angle_l_u	mtp_angle_l_u	lumbar_extension_u	lumbar_bending_u	lumbar_rotation_u
      0.75000000000000000000	      0.60214087334532085000	      1.01044860933802450000	      0.00781172178129497290	      4.46251049294530940000	      0.97631167716928124000	      3.52248308543458100000	     20.36849120629917600000	     -2.93302990385571370000	     -6.88821028533321660000	    -22.65064677745454000000	     -0.57981389903440983000	     -0.00028737276767658055	     -0.00000026971066935595	    -15.58242962808861700000	      0.16083906585187982000	      2.65913363152653170000	    -33.13626484516253600000	      6.32014641958747790000	      0.00067742899391166466	     -0.00000021302777248748	    -15.49592640556837400000	      1.82083186246892460000	     -7.26225642400737040000	      0.11937137778312921000	      0.10981041275458252000	      0.17155926649950687000	      3.43688986861002950000	    -18.72343661595285600000	      2.11979779364830810000	    -46.08141991178806800000	     27.07375529424644300000	      1.27990154216267980000	    -69.21928278184995500000	     53.53465262772518000000	      0.00165259500607600620	      0.00000859069174442920	    148.20988312894806000000	    -29.69228631689413000000	    -11.08543966313981800000	   -356.69046520799009000000	   -194.64885611868601000000	      0.00755223270037666970	      0.00000719708474238488	      8.37768208216493630000	     38.04376724999764300000	     12.47027501002301100000
      0.75000001000000005000	      0.60214087453903453000	      1.01044861043612880000	      0.00781172349688767380	      4.46251052731420380000	      0.97631148993490313000	      3.52248310663255240000	     20.36849074548493000000	     -2.93302963311814050000	     -6.88821027253419870000	    -22.65064746964725400000	     -0.57981336368791370000	     -0.00028737275112668368	     -0.00000026971045812101	    -15.58242814598970400000	      0.16083876892898824000	      2.65913352067207630000	    -33.13626841206725300000	      6.32014447309903370000	      0.00067742906942212160	     -0.00000021302797835398	    -15.49592632179155400000	      1.82083224290659800000	     -7.26225629930460230000	      0.11937135676910728000	      0.10981042292542950000	      0.17155927364308673000	      3.43688900296996680000	    -18.72343901242288300000	      2.11979651393281810000	    -46.08142927095315900000	     27.07375932278938500000	      1.27990187374650640000	    -69.21926046728607700000	     53.53464660858217200000	      0.00165738435664096700	      0.00003365624541547964	    148.20989922223728000000	    -29.69229199704312800000	    -11.08545143182743900000	   -356.69047782820769000000	   -194.64883265283450000000	      0.00754985868686198090	     -0.00004837026830440984	      8.37768173234095850000	     38.04376744100824200000	     12.47027859663572400000
      0.75000003000000004000	      0.60214087692646123000	      1.01044861263233750000	      0.00781172692807328980	      4.46251059605196690000	      0.97631111546607496000	      3.52248314902845690000	     20.36848982385615500000	     -2.93302909164287360000	     -6.88821024693615500000	    -22.65064885403201700000	     -0.57981229299510184000	     -0.00028737271788321071	     -0.00000026970928369062	    -15.58242518179140000000	      0.16083817508303472000	      2.65913329896281250000	    -33.13627554587706200000	      6.32014058012285050000	      0.00067742922037181553	     -0.00000021303005709394	    -15.49592615423792800000	      1.82083300378195070000	     -7.26225604989895770000	      0.11937131474105550000	      0.10981044326712353000	      0.17155928793026709000	      3.43688727168708260000	    -18.72344380537079900000	      2.11979395449366240000	    -46.08144798925604800000	     27.07376737989523400000	      1.27990253691684460000	    -69.21921583824318700000	     53.53463457075042700000	      0.00166696290573287140	      0.00008378660755949334	    148.20993140881691000000	    -29.69230335734807400000	    -11.08547496920563100000	   -356.69050306858310000000	   -194.64878572209076000000	      0.00754511072867063320	     -0.00015950331340562943	      8.37768103269512390000	     38.04376782303550200000	     12.47028576987108800000
      0.75000007000000002000	      0.60214088170131219000	      1.01044861702475620000	      0.00781173379044537880	      4.46251073352738810000	      0.97631036652813097000	      3.52248323382011240000	     20.36848798059748600000	     -2.93302800869185630000	     -6.88821019574002770000	    -22.65065162279886500000	     -0.57981015161020055000	     -0.00028737265082156183	     -0.00000026970392705737	    -15.58241925339285700000	      0.16083698739044600000	      2.65913285554287220000	    -33.13628981349819500000	      6.32013279417329880000	      0.00067742952198633058	     -0.00000021304088244675	    -15.49592581913071300000	      1.82083452553267850000	     -7.26225555108723950000	      0.11937123068492039000	      0.10981048395051173000	      0.17155931650471021000	      3.43688380911027820000	    -18.72345339129805100000	      2.11978883558264290000	    -46.08148542575273900000	     27.07378349418678100000	      1.27990386326826240000	    -69.21912658049677700000	     53.53461049690408700000	      0.00168611939576628480	      0.00018404435105409374	    148.20999578198087000000	    -29.69232607798574000000	    -11.08552204397381600000	   -356.69055354909523000000	   -194.64869186444034000000	      0.00753561508764027510	     -0.00038176275963993029	      8.37767963341192430000	     38.04376858711429300000	     12.47030011638156400000
      0.75000014999999998000	      0.60214089125100390000	      1.01044862580959820000	      0.00781174751519298550	      4.46251100847781590000	      0.97630886865109279000	      3.52248340340281010000	     20.36848429407565700000	     -2.93302584278788720000	     -6.88821009334761230000	    -22.65065716032184900000	     -0.57980586884328644000	     -0.00028737251439956601	     -0.00000026968118325746	    -15.58240739658804400000	      0.16083461200254212000	      2.65913196869734270000	    -33.13631834874652100000	      6.32011722228545820000	      0.00067743012407592024	     -0.00000021308920340372	    -15.49592514891645400000	      1.82083756903422670000	     -7.26225455346208280000	      0.11937106257252393000	      0.10981056531728876000	      0.17155937365392607000	      3.43687688391252740000	    -18.72347256327823200000	      2.11977859762977610000	    -46.08156029830966800000	     27.07381572308927200000	      1.27990651601406240000	    -69.21894806636152000000	     53.53456235647996000000	      0.00172442994324492590	      0.00038454791486094834	    148.21012452832750000000	    -29.69237151937216600000	    -11.08561619355737600000	   -356.69065450916401000000	   -194.64850416448752000000	      0.00751662490699067830	     -0.00082625507624677617	      8.37767683487942170000	     38.04377011536892200000	     12.47032880956149700000
      0.75000031000000000000	      0.60214091035034700000	      1.01044864337930160000	      0.00781177496470191430	      4.46251155837700870000	      0.97630587289241522000	      3.52248374256574740000	     20.36847692101402900000	     -2.93302151097221490000	     -6.88820988856214540000	    -22.65066823532498200000	     -0.57979730332101009000	     -0.00028737223236169042	     -0.00000026958757797526	    -15.58238368294751900000	      0.16082986121582835000	      2.65913019498368760000	    -33.13637541926739500000	      6.32008607855482030000	      0.00067743132369774942	     -0.00000021329251640133	    -15.49592380848860700000	      1.82084365603768950000	     -7.26225255820488340000	      0.11937072634722611000	      0.10981072805084539000	      0.17155948795367634000	      3.43686303334046170000	    -18.72351090774131800000	      2.11975812120072820000	    -46.08171004167780900000	     27.07388018217184500000	      1.27991182167751890000	    -69.21859104352121500000	     53.53446610470599200000	      0.00180104130795660180	      0.00078550734967591926	    148.21038202109565000000	    -29.69246240258937800000	    -11.08580449291327800000	   -356.69085642547986000000	   -194.64812882597420000000	      0.00747864895135017320	     -0.00171513340609937440	      8.37767123794998450000	     38.04377317226634900000	     12.47038619655729100000
      0.75000063000000006000	      0.60214094854887179000	      1.01044867851878670000	      0.00781182986377463620	      4.46251265816874730000	      0.97629988135665413000	      3.52248442088179340000	     20.36846217481890200000	     -2.93301284730992910000	     -6.88820947898866450000	    -22.65069038515986900000	     -0.57978017232264267000	     -0.00028737163151766848	     -0.00000026920793229204	    -15.58233625554287500000	      0.16082035959877666000	      2.65912664746599430000	    -33.13648956040606200000	      6.32002379127367410000	      0.00067743370471529606	     -0.00000021412574735819	    -15.49592112763560300000	      1.82085583004608310000	     -7.26224856766293670000	      0.11937005389461081000	      0.10981105351796894000	      0.17155971655845106000	      3.43683533149008900000	    -18.72358759867834300000	      2.11971716624940190000	    -46.08200952143119600000	     27.07400910544729900000	      1.27992243369184160000	    -69.21787701956135700000	     53.53427371745551300000	      0.00195422511725449430	      0.00158723544755619630	    148.21089700693179000000	    -29.69264417080122000000	    -11.08618109238012100000	   -356.69126024282474000000	   -194.64737839451661000000	      0.00740271466281755640	     -0.00349246485304709460	      8.37766004463337490000	     38.04377928761387300000	     12.47050097309256100000
      0.75000127000000005000	      0.60214102494527588000	      1.01044874879806930000	      0.00781193966213954580	      4.46251485772562970000	      0.97628789821150674000	      3.52248577747456660000	     20.36843268214114700000	     -2.93299551986158580000	     -6.88820865983151440000	    -22.65073468414420800000	     -0.57974591051047564000	     -0.00028737028281466102	     -0.00000026767918533722	    -15.58224140023919800000	      0.16080135619017388000	      2.65911955206907050000	    -33.13671784307104700000	      6.31989921743153360000	      0.00067743839387226026	     -0.00000021749799413519	    -15.49591576594033700000	      1.82088017806874270000	     -7.26224058646885420000	      0.11936870898130192000	      0.10981170445225731000	      0.17156017378909683000	      3.43677992496452280000	    -18.72374098859558700000	      2.11963524797399350000	    -46.08260845300696900000	     27.07426697243898100000	      1.27994366046999670000	    -69.21644905852397800000	     53.53388940814736700000	      0.00226043706220435330	      0.00318992855188088850	    148.21192697980288000000	    -29.69300771433438900000	    -11.08693429433345300000	   -356.69206781636660000000	   -194.64587851387589000000	      0.00725091657765563910	     -0.00704542690139955530	      8.37763766016905720000	     38.04379152451938500000	     12.47073053633760500000
